{"title":"Absolutely.Anything.2015.BRRip.480p.x264.AAC-VYTO [P2PDL]","uid":12891032,"size":321080703,"categoryP":"video","categoryS":"movies","magnet":"?xt=urn:btih:e9c4ea24b09ec50852c84ff79ea7dbc85a1a76c5&amp;dn=Absolutely.Anything.2015.BRRip.480p.x264.AAC-VYTO+%5BP2PDL%5D&amp;tr=udp%3A%2F%2Ftracker.leechers-paradise.org%3A6969&amp;tr=udp%3A%2F%2Fzer0day.ch%3A1337&amp;tr=udp%3A%2F%2Fopen.demonii.com%3A1337&amp;tr=udp%3A%2F%2Ftracker.coppersurfer.tk%3A6969&amp;tr=udp%3A%2F%2Fexodus.desync.com%3A6969","seeders":1,"leechers":0,"uploader":"VYTOP2PDL","files":7,"time":1449120226,"description":"Absolutely.Anything.2015.BRRip.480p.x264.AAC-VYTO\r\n\r\n\r\nGenre: Comedy, Sci-Fi    \nhttp://www.imdb.com/title/tt1727770/\r\n\r\n\r\nGeneral\r\nFormat                         : MPEG-4\r\nFile size                      : 301 MiB\r\nDuration                       : 1h 25mn\r\nOverall bit rate mode          : Variable\r\nOverall bit rate               : 492 Kbps\r\n\r\nVideo\r\nFormat                         : AVC\r\nBit rate                       : 457 Kbps\r\nWidth                          : 720 pixels\r\nHeight                         : 304 pixels\r\nDisplay aspect ratio           : 2.35:1\r\nFrame rate mode                : Constant\r\nFrame rate                     : 23.976 fps\r\nBit depth                      : 8 bits\r\nStream size                    : 279 MiB (93%)\r\nWriting library                : x264\r\n\r\nAudio\r\nFormat                         : AAC\r\nBit rate mode                  : Variable\r\nBit rate                       : 31.9 Kbps\r\nChannel(s)                     : 2 channels\r\nChannel positions              : Front: L R\r\nSampling rate                  : 48.0 KHz\r\nStream size                    : 19.5 MiB (6%)\r\nLanguage                       : English\r\n\r\nSubtitle                       : Yes (English)\r\n \nhttp://ititli.com/m8 \nhttp://ititli.com/me \nhttp://ititli.com/mj \nhttp://ititli.com/mk \nhttp://ititli.com/mo \nhttp://ititli.com/mG \nhttp://ititli.com/mH \nhttp://ititli.com/mM \nhttp://ititli.com/mU\r\n\r\n\r\n----------------------------------------------------------------------------------------------------\r\n\r\n\r\nEncoder Notes: Looking For Early Access To Anything You Can Provide DVDScr, R5, DVDR, BluRay, Direct\r\nAudio, Music Releases and Seedboxes. If You Got anything to offer please contact us.\r\n\r\nSupport us by donating BC - 1FgwdzPsd1y25Gea8wP1qni35uGCtmkRCD","torrent":{"xt":"urn:btih:e9c4ea24b09ec50852c84ff79ea7dbc85a1a76c5","amp;dn":"Absolutely.Anything.2015.BRRip.480p.x264.AAC-VYTO+%5BP2PDL%5D","amp;tr":["udp%3A%2F%2Ftracker.leechers-paradise.org%3A6969","udp%3A%2F%2Fzer0day.ch%3A1337","udp%3A%2F%2Fopen.demonii.com%3A1337","udp%3A%2F%2Ftracker.coppersurfer.tk%3A6969","udp%3A%2F%2Fexodus.desync.com%3A6969"],"infoHash":"e9c4ea24b09ec50852c84ff79ea7dbc85a1a76c5","infoHashBuffer":{"type":"Buffer","data":[233,196,234,36,176,158,197,8,82,200,79,247,158,167,219,200,90,26,118,197]},"announce":[],"urlList":[]}}